<?xml version="1.0" encoding="UTF-8" standalone="no"?>
<!DOCTYPE svg PUBLIC "-//W3C//DTD SVG 1.1//EN" "http://www.w3.org/Graphics/SVG/1.1/DTD/svg11.dtd">
<svg version="1.1" xmlns="http://www.w3.org/2000/svg" xmlns:xlink="http://www.w3.org/1999/xlink" preserveAspectRatio="xMidYMid meet" viewBox="0 0 25 25" width="25" height="25"><defs><path d="M22.4 18.92C22.4 21.51 20.18 23.61 17.45 23.61C14.72 23.61 12.5 21.51 12.5 18.92C12.5 16.33 14.72 14.23 17.45 14.23C20.18 14.23 22.4 16.33 22.4 18.92Z" id="aaepVoXgoE"></path><path d="M11.06 18.46C11.06 21.05 8.84 23.15 6.11 23.15C3.37 23.15 1.16 21.05 1.16 18.46C1.16 15.87 3.37 13.77 6.11 13.77C8.84 13.77 11.06 15.87 11.06 18.46Z" id="a16rDvNCRi"></path><path d="M23.97 8.53C23.97 11.12 21.75 13.22 19.02 13.22C16.29 13.22 14.07 11.12 14.07 8.53C14.07 5.94 16.29 3.84 19.02 3.84C21.75 3.84 23.97 5.94 23.97 8.53Z" id="ext9BIAUC"></path><path d="M12.69 7.81C12.69 10.4 10.47 12.5 7.74 12.5C5.01 12.5 2.79 10.4 2.79 7.81C2.79 5.22 5.01 3.11 7.74 3.11C10.47 3.11 12.69 5.22 12.69 7.81Z" id="d1Z3DRfjee"></path></defs><g><g><g><use xlink:href="#aaepVoXgoE" opacity="1" fill="#ffffff" fill-opacity="1"></use><g><use xlink:href="#aaepVoXgoE" opacity="1" fill-opacity="0" stroke="#0b1ebe" stroke-width="1" stroke-opacity="1"></use></g></g><g><use xlink:href="#a16rDvNCRi" opacity="1" fill="#000000" fill-opacity="1"></use><g><use xlink:href="#a16rDvNCRi" opacity="1" fill-opacity="0" stroke="#0b1ebe" stroke-width="1" stroke-opacity="1"></use></g></g><g><use xlink:href="#ext9BIAUC" opacity="1" fill="#ffffff" fill-opacity="1"></use><g><use xlink:href="#ext9BIAUC" opacity="1" fill-opacity="0" stroke="#0b1ebe" stroke-width="1" stroke-opacity="1"></use></g></g><g><use xlink:href="#d1Z3DRfjee" opacity="1" fill="#ffffff" fill-opacity="1"></use><g><use xlink:href="#d1Z3DRfjee" opacity="1" fill-opacity="0" stroke="#0b1ebe" stroke-width="1" stroke-opacity="1"></use></g></g></g></g></svg>